<mxfile host="app.diagrams.net" agent="Mozilla/5.0 (Macintosh; Intel Mac OS X 10_15_7) AppleWebKit/605.1.15 (KHTML, like Gecko) Version/18.0 Safari/605.1.15" version="24.7.16">
  <diagram name="Page-1" id="6IyTYUzncKEAiaKfEHQ4">
    <mxGraphModel dx="1026" dy="617" grid="1" gridSize="10" guides="1" tooltips="1" connect="1" arrows="1" fold="1" page="1" pageScale="1" pageWidth="827" pageHeight="1169" math="0" shadow="0">
      <root>
        <mxCell id="0" />
        <mxCell id="1" parent="0" />
        <mxCell id="hNU-DkRJmX0IVGSSHYW9-12" value="" style="rounded=1;whiteSpace=wrap;html=1;" vertex="1" parent="1">
          <mxGeometry x="287.5" y="160" width="95" height="156" as="geometry" />
        </mxCell>
        <mxCell id="hNU-DkRJmX0IVGSSHYW9-1" value="" style="rounded=1;whiteSpace=wrap;html=1;" vertex="1" parent="1">
          <mxGeometry x="110" y="60" width="650" height="500" as="geometry" />
        </mxCell>
        <mxCell id="hNU-DkRJmX0IVGSSHYW9-2" value="K8s clutster" style="aspect=fixed;sketch=0;html=1;dashed=0;whitespace=wrap;verticalLabelPosition=bottom;verticalAlign=top;fillColor=#2875E2;strokeColor=#ffffff;points=[[0.005,0.63,0],[0.1,0.2,0],[0.9,0.2,0],[0.5,0,0],[0.995,0.63,0],[0.72,0.99,0],[0.5,1,0],[0.28,0.99,0]];shape=mxgraph.kubernetes.icon2;prIcon=control_plane" vertex="1" parent="1">
          <mxGeometry x="140.42000000000002" y="470" width="52.08" height="50" as="geometry" />
        </mxCell>
        <mxCell id="hNU-DkRJmX0IVGSSHYW9-4" value="Namespace" style="aspect=fixed;sketch=0;html=1;dashed=0;whitespace=wrap;verticalLabelPosition=bottom;verticalAlign=top;fillColor=#2875E2;strokeColor=#ffffff;points=[[0.005,0.63,0],[0.1,0.2,0],[0.9,0.2,0],[0.5,0,0],[0.995,0.63,0],[0.72,0.99,0],[0.5,1,0],[0.28,0.99,0]];shape=mxgraph.kubernetes.icon2;prIcon=ns" vertex="1" parent="1">
          <mxGeometry x="230" y="400" width="50" height="48" as="geometry" />
        </mxCell>
        <mxCell id="hNU-DkRJmX0IVGSSHYW9-3" value="" style="rounded=1;whiteSpace=wrap;html=1;" vertex="1" parent="1">
          <mxGeometry x="192.5" y="125" width="485" height="370" as="geometry" />
        </mxCell>
        <mxCell id="hNU-DkRJmX0IVGSSHYW9-13" value="Node 1" style="rounded=1;whiteSpace=wrap;html=1;labelPosition=center;verticalLabelPosition=bottom;align=center;verticalAlign=top;" vertex="1" parent="1">
          <mxGeometry x="291.88" y="160" width="86.25" height="170" as="geometry" />
        </mxCell>
        <mxCell id="hNU-DkRJmX0IVGSSHYW9-19" style="edgeStyle=orthogonalEdgeStyle;rounded=0;orthogonalLoop=1;jettySize=auto;html=1;entryX=0;entryY=0.5;entryDx=0;entryDy=0;curved=1;" edge="1" parent="1" source="hNU-DkRJmX0IVGSSHYW9-8" target="hNU-DkRJmX0IVGSSHYW9-13">
          <mxGeometry relative="1" as="geometry" />
        </mxCell>
        <mxCell id="hNU-DkRJmX0IVGSSHYW9-20" style="edgeStyle=orthogonalEdgeStyle;rounded=0;orthogonalLoop=1;jettySize=auto;html=1;entryX=1;entryY=0.5;entryDx=0;entryDy=0;curved=1;" edge="1" parent="1" source="hNU-DkRJmX0IVGSSHYW9-8" target="hNU-DkRJmX0IVGSSHYW9-18">
          <mxGeometry relative="1" as="geometry" />
        </mxCell>
        <mxCell id="hNU-DkRJmX0IVGSSHYW9-21" style="edgeStyle=orthogonalEdgeStyle;rounded=0;orthogonalLoop=1;jettySize=auto;html=1;entryX=0.5;entryY=1;entryDx=0;entryDy=0;curved=1;" edge="1" parent="1" source="hNU-DkRJmX0IVGSSHYW9-8" target="hNU-DkRJmX0IVGSSHYW9-17">
          <mxGeometry relative="1" as="geometry" />
        </mxCell>
        <mxCell id="hNU-DkRJmX0IVGSSHYW9-8" value="Service NodePort" style="aspect=fixed;sketch=0;html=1;dashed=0;whitespace=wrap;verticalLabelPosition=bottom;verticalAlign=top;fillColor=#2875E2;strokeColor=#ffffff;points=[[0.005,0.63,0],[0.1,0.2,0],[0.9,0.2,0],[0.5,0,0],[0.995,0.63,0],[0.72,0.99,0],[0.5,1,0],[0.28,0.99,0]];shape=mxgraph.kubernetes.icon2;kubernetesLabel=1;prIcon=svc" vertex="1" parent="1">
          <mxGeometry x="410" y="390" width="50" height="48" as="geometry" />
        </mxCell>
        <mxCell id="hNU-DkRJmX0IVGSSHYW9-9" value="Pod 1" style="aspect=fixed;sketch=0;html=1;dashed=0;whitespace=wrap;verticalLabelPosition=bottom;verticalAlign=top;fillColor=#2875E2;strokeColor=#ffffff;points=[[0.005,0.63,0],[0.1,0.2,0],[0.9,0.2,0],[0.5,0,0],[0.995,0.63,0],[0.72,0.99,0],[0.5,1,0],[0.28,0.99,0]];shape=mxgraph.kubernetes.icon2;prIcon=pod" vertex="1" parent="1">
          <mxGeometry x="310.01" y="205" width="50" height="48" as="geometry" />
        </mxCell>
        <mxCell id="hNU-DkRJmX0IVGSSHYW9-18" value="Node 3" style="rounded=1;whiteSpace=wrap;html=1;labelPosition=center;verticalLabelPosition=bottom;align=center;verticalAlign=top;" vertex="1" parent="1">
          <mxGeometry x="491.87" y="160" width="86.25" height="170" as="geometry" />
        </mxCell>
        <mxCell id="hNU-DkRJmX0IVGSSHYW9-17" value="Node 2" style="rounded=1;whiteSpace=wrap;html=1;labelPosition=center;verticalLabelPosition=bottom;align=center;verticalAlign=top;" vertex="1" parent="1">
          <mxGeometry x="391.87" y="160" width="86.25" height="170" as="geometry" />
        </mxCell>
        <mxCell id="hNU-DkRJmX0IVGSSHYW9-10" value="Pod 2" style="aspect=fixed;sketch=0;html=1;dashed=0;whitespace=wrap;verticalLabelPosition=bottom;verticalAlign=top;fillColor=#2875E2;strokeColor=#ffffff;points=[[0.005,0.63,0],[0.1,0.2,0],[0.9,0.2,0],[0.5,0,0],[0.995,0.63,0],[0.72,0.99,0],[0.5,1,0],[0.28,0.99,0]];shape=mxgraph.kubernetes.icon2;prIcon=pod" vertex="1" parent="1">
          <mxGeometry x="410" y="205" width="50" height="48" as="geometry" />
        </mxCell>
        <mxCell id="hNU-DkRJmX0IVGSSHYW9-11" value="Pod 3" style="aspect=fixed;sketch=0;html=1;dashed=0;whitespace=wrap;verticalLabelPosition=bottom;verticalAlign=top;fillColor=#2875E2;strokeColor=#ffffff;points=[[0.005,0.63,0],[0.1,0.2,0],[0.9,0.2,0],[0.5,0,0],[0.995,0.63,0],[0.72,0.99,0],[0.5,1,0],[0.28,0.99,0]];shape=mxgraph.kubernetes.icon2;prIcon=pod" vertex="1" parent="1">
          <mxGeometry x="509.99" y="205" width="50" height="48" as="geometry" />
        </mxCell>
        <mxCell id="hNU-DkRJmX0IVGSSHYW9-22" value="&lt;i&gt;NodePort&lt;/i&gt;" style="text;strokeColor=none;align=center;fillColor=none;html=1;verticalAlign=middle;whiteSpace=wrap;rounded=0;" vertex="1" parent="1">
          <mxGeometry x="220" y="223" width="60" height="30" as="geometry" />
        </mxCell>
        <mxCell id="hNU-DkRJmX0IVGSSHYW9-23" value="&lt;i&gt;NodePort&lt;/i&gt;" style="text;strokeColor=none;align=center;fillColor=none;html=1;verticalAlign=middle;whiteSpace=wrap;rounded=0;" vertex="1" parent="1">
          <mxGeometry x="405" y="310" width="60" height="30" as="geometry" />
        </mxCell>
        <mxCell id="hNU-DkRJmX0IVGSSHYW9-24" value="&lt;i&gt;NodePort&lt;/i&gt;" style="text;strokeColor=none;align=center;fillColor=none;html=1;verticalAlign=middle;whiteSpace=wrap;rounded=0;" vertex="1" parent="1">
          <mxGeometry x="590" y="223" width="60" height="30" as="geometry" />
        </mxCell>
        <mxCell id="hNU-DkRJmX0IVGSSHYW9-25" value="namespace" style="aspect=fixed;sketch=0;html=1;dashed=0;whitespace=wrap;verticalLabelPosition=bottom;verticalAlign=top;fillColor=#2875E2;strokeColor=#ffffff;points=[[0.005,0.63,0],[0.1,0.2,0],[0.9,0.2,0],[0.5,0,0],[0.995,0.63,0],[0.72,0.99,0],[0.5,1,0],[0.28,0.99,0]];shape=mxgraph.kubernetes.icon2;kubernetesLabel=1;prIcon=ns" vertex="1" parent="1">
          <mxGeometry x="220" y="410" width="50" height="48" as="geometry" />
        </mxCell>
      </root>
    </mxGraphModel>
  </diagram>
</mxfile>
